<svg width="512" height="512" viewBox="0 0 512 512" fill="none" xmlns="http://www.w3.org/2000/svg">
  <rect width="512" height="512" rx="64" fill="#1976d2"/>
  <circle cx="256" cy="256" r="160" fill="white"/>
  <path d="M200 200H312V224H224V288H296V312H200V200Z" fill="#1976d2"/>
  <path d="M256 160C228.39 160 206 182.39 206 210H230C230 195.64 241.64 184 256 184C270.36 184 282 195.64 282 210C282 224.36 270.36 236 256 236H232V260H256C283.61 260 306 237.61 306 210C306 182.39 283.61 160 256 160Z" fill="#1976d2"/>
  <circle cx="244" cy="324" r="12" fill="#1976d2"/>
  <text x="256" y="420" text-anchor="middle" fill="white" font-family="Arial, sans-serif" font-size="48" font-weight="bold">DiaPK</text>
  <text x="256" y="460" text-anchor="middle" fill="white" font-family="Arial, sans-serif" font-size="24">Dijital Yatırım</text>
</svg>